<svg xmlns="http://www.w3.org/2000/svg" width="352.683" height="124.364" viewBox="0 0 352.683 124.364">
  <g id="Delmon_Poultry_Logo" data-name="Delmon Poultry Logo" transform="translate(-56 -249.17)">
    <g id="Group_48700" data-name="Group 48700" transform="translate(56 249.17)">
      <path id="Path_23343" data-name="Path 23343" d="M181.378,262.589a9.258,9.258,0,0,0-5.549-5.077,9.137,9.137,0,0,0-7.439.945c-1.181.767-2.184,1.771-3.424,2.48a8.454,8.454,0,0,1-9.564-1.3c-4.369-3.719-1.181-9.623-1.181-9.623a4.966,4.966,0,0,0,2.716,3.188c5.9,2.3,8.383-1.594,10.863-3.011,4.723-2.657,7.793.708,7.793.708s4.369-.531,6.612,3.188C183.562,256.449,182.913,260.4,181.378,262.589Z" transform="translate(-94.737 -249.17)" fill="#e31d1a"/>
      <path id="Path_23344" data-name="Path 23344" d="M194.718,289.3a4.694,4.694,0,0,0,1.063,4.782c1.122,1.3,2.539,2.3,3.778,3.483a5.552,5.552,0,0,1,2.007,4.546,4.164,4.164,0,0,1-3.188,3.365,5.782,5.782,0,0,1-4.664-1.122,9.136,9.136,0,0,1-2.775-4.015,10.613,10.613,0,0,1-.354-6.2A7.072,7.072,0,0,1,194.718,289.3Z" transform="translate(-112.043 -265.61)" fill="#e31d1a"/>
      <path id="Path_23345" data-name="Path 23345" d="M188.087,272.259a1.479,1.479,0,0,1,2.6,1.417,1.476,1.476,0,0,1-2.007.59A1.5,1.5,0,0,1,188.087,272.259Z" transform="translate(-110.041 -258.309)" fill="#e31d1a"/>
      <path id="Path_23346" data-name="Path 23346" d="M122.593,286s-2.48,1.948-.945,9.269c0,0,6.376,21.135.826,33.3,0,0-2.066,6.435-8.442,6.258,0,0-5.608.708-15.409-7.32-8.324-6.789-24.8-16.412-42.624,5.963,0,0,5.845-1.3,10.8,6.612,0,0,6.671,13.342,8.383,17.121s10.8,23.319,31.23,29.459a43.994,43.994,0,0,0,51.244-20.131c10.272-17.593,4.782-39.554-10.154-55.671,0,0,17.888,20.131,3.483,37.429,0,0,6.553-15.527-10.863-33.474C127.847,302.412,121.589,289.011,122.593,286Z" transform="translate(-56 -264.257)" fill="#e31d1a"/>
      <path id="Path_23347" data-name="Path 23347" d="M206.2,280.833a2225.884,2225.884,0,0,0-1.063-.59c-.354-.177-.649-.413-.944-.531a8.9,8.9,0,0,1-1-.472s.472,0,1.122.059a10.663,10.663,0,0,1,1.122.3,2.465,2.465,0,0,1,.59.236,2.761,2.761,0,0,0,.59.3c.354.236.708.531,1.063.767.059.059.177.118.236.236.649.059,1.122.118,1.122.118-1.063-4.133-7.084-4.546-7.084-4.546l.827,1.83-2.48,1.122c1.535.3,1.181,1.535,1.181,1.535a22.085,22.085,0,0,1,5.136-.177C206.5,281.01,206.381,280.892,206.2,280.833Z" transform="translate(-115.111 -260.447)" fill="#e31d1a"/>
      <g id="Group_48698" data-name="Group 48698" transform="translate(148.89 64.486)">
        <path id="Path_23348" data-name="Path 23348" d="M626.457,382.616a1.283,1.283,0,0,1,.827-.827,1.274,1.274,0,0,0,1.417,1.3,1.493,1.493,0,0,0,1.476-1.24,14.827,14.827,0,0,0,.177-3.365h2.538v3.837a1.374,1.374,0,0,1,.649-.531,1.52,1.52,0,0,0,1.594,1.417,1.425,1.425,0,0,0,1.417-1.358,28.312,28.312,0,0,0,.177-4.074h2.539v3.955a3.7,3.7,0,0,1-.886,2.657,3.347,3.347,0,0,1-2.834,1c-1.24-.059-2.775-.768-2.952-1.889a2.9,2.9,0,0,1-.59.886,3.176,3.176,0,0,1-2.775,1,3.9,3.9,0,0,1-3.542-2.952m.649,1.062a2.91,2.91,0,0,1-.591.886,3.518,3.518,0,0,1-2.775,1.063h-3.955l-.118-2.3h3.483a1.553,1.553,0,0,0,1.535-1.24,10.658,10.658,0,0,0,.177-2.893h2.539v3.365m10.1-3.07v-2.243c0-1.358,1.063-2.066,2.539-2.066v4.6" transform="translate(-435.474 -365.2)" fill="#f7f7f7"/>
        <g id="Group_48685" data-name="Group 48685" transform="translate(164.778 12.221)">
          <path id="Path_23349" data-name="Path 23349" d="M593.8,385.033V380.9h2.539v5.786c0,3.07-1.771,5.018-5.136,5.018-2.539,0-4.487-1.358-3.72-4.014a3.947,3.947,0,0,0,3.424,1.712c1.83-.059,2.893-.944,2.893-2.834Z" transform="translate(-587.313 -379.837)" fill="#f7f7f7"/>
          <path id="Path_23350" data-name="Path 23350" d="M598.3,383.41V379.1h2.479a21.189,21.189,0,0,0,.177,4.428,1.554,1.554,0,0,0,1.535,1.24h8.265v2.3h-8.8a3.677,3.677,0,0,1-2.775-1.063A3.455,3.455,0,0,1,598.3,383.41Z" transform="translate(-591.814 -379.1)" fill="#f7f7f7"/>
        </g>
        <g id="Group_48686" data-name="Group 48686" transform="translate(194.116)">
          <path id="Path_23351" data-name="Path 23351" d="M647.378,365.472a1.649,1.649,0,0,1,.472,1.181,1.756,1.756,0,0,1-.472,1.181c-.709.708-2.125.472-2.42,1.358-.236-.827-.708-2.834.118-3.719a1.649,1.649,0,0,1,1.181-.472A1.512,1.512,0,0,1,647.378,365.472Z" transform="translate(-640.121 -361.104)" fill="#f7f7f7"/>
          <path id="Path_23352" data-name="Path 23352" d="M639.778,365.472a1.649,1.649,0,0,1,.472,1.181,1.756,1.756,0,0,1-.472,1.181c-.709.708-2.125.472-2.42,1.358-.236-.827-.709-2.834.118-3.719a1.65,1.65,0,0,1,1.181-.472A1.613,1.613,0,0,1,639.778,365.472Z" transform="translate(-637.008 -361.104)" fill="#f7f7f7"/>
          <path id="Path_23353" data-name="Path 23353" d="M645.578,358.872a1.649,1.649,0,0,1,.472,1.181,1.755,1.755,0,0,1-.472,1.181c-.709.709-2.125.472-2.421,1.358-.236-.827-.708-2.834.118-3.719a1.648,1.648,0,0,1,1.181-.472A1.477,1.477,0,0,1,645.578,358.872Z" transform="translate(-639.383 -358.4)" fill="#f7f7f7"/>
        </g>
        <path id="Path_23354" data-name="Path 23354" d="M547.023,381.857a8.377,8.377,0,0,1-1.653,2.48c-2.952,2.952-7.97.945-7.97-3.956a4.656,4.656,0,0,1,4.959-4.782,2.374,2.374,0,0,1,2.42,3.188,2.638,2.638,0,0,0-2.125-.826c-3.6,0-3.719,5.431-.059,5.431,2.066,0,2.656-1.83,2.656-3.66v-4.073h2.3" transform="translate(-402.089 -365.445)" fill="#f7f7f7"/>
        <path id="Path_23355" data-name="Path 23355" d="M550.9,381.935V375.5h2.48c0,1.3-.118,5.608.177,6.553a1.554,1.554,0,0,0,1.535,1.24h2.775v2.3h-3.247a3.676,3.676,0,0,1-2.775-1.063A3.327,3.327,0,0,1,550.9,381.935Z" transform="translate(-407.618 -365.405)" fill="#f7f7f7"/>
        <g id="Group_48687" data-name="Group 48687" transform="translate(137.323 4.118)">
          <path id="Path_23356" data-name="Path 23356" d="M551.178,365.8a1.649,1.649,0,0,1,.472,1.181,1.756,1.756,0,0,1-.472,1.181c-.708.708-2.125.472-2.421,1.358-.236-.827-.708-2.834.118-3.66a1.649,1.649,0,0,1,1.181-.472A1.24,1.24,0,0,1,551.178,365.8Z" transform="translate(-543.921 -365.375)" fill="#f7f7f7"/>
          <path id="Path_23357" data-name="Path 23357" d="M543.578,365.8a1.649,1.649,0,0,1,.472,1.181,1.756,1.756,0,0,1-.472,1.181c-.708.708-2.125.472-2.421,1.358-.236-.827-.708-2.834.118-3.66a1.648,1.648,0,0,1,1.18-.472A1.24,1.24,0,0,1,543.578,365.8Z" transform="translate(-540.808 -365.375)" fill="#f7f7f7"/>
        </g>
        <path id="Path_23358" data-name="Path 23358" d="M570.692,375.54v2.3h-3.424a8.9,8.9,0,0,1-2.657-.413c-1.948-.65-3.011-1.594-3.011-3.6a3.965,3.965,0,0,1,2.421-4.015,9.965,9.965,0,0,1,3.6-.413h8.265c.059,1.535-.649,2.3-2.066,2.3h-6.848c-.945,0-2.834.413-2.834,1.889s2.007,1.889,2.952,1.889h3.6Z" transform="translate(-412.002 -362.906)" fill="#f7f7f7"/>
        <path id="Path_23359" data-name="Path 23359" d="M560.2,385.154h10.213c2.184,0,2.3-.885,2.3-1.24,0-.413.118-1.712-2.893-1.712h-1.712c-1.358,0-2.066-.826-2.007-2.3h3.129a9.965,9.965,0,0,1,3.6.413,3.719,3.719,0,0,1,2.42,4.014c-.059,1-.472,3.129-2.6,3.129H560.2" transform="translate(-411.428 -367.207)" fill="#f7f7f7"/>
        <g id="Group_48688" data-name="Group 48688" transform="translate(71.611 9.8)">
          <path id="Path_23360" data-name="Path 23360" d="M438,383.088h1.83a2.072,2.072,0,0,0,1.063-.354c.886-.59.827-1.83.827-2.775v-2.893c0-1.358,1-2.066,2.539-2.066v4.31a9.967,9.967,0,0,1-.413,3.6,4.013,4.013,0,0,1-4.014,2.421H438" transform="translate(-432.982 -375)" fill="#f7f7f7"/>
          <path id="Path_23361" data-name="Path 23361" d="M434.577,387.313h-.649a3.964,3.964,0,0,1-4.014-2.42,7.813,7.813,0,0,1-.413-3.247V379.7c1.476-.059,2.538.649,2.538,2.066v.177c0,.945-.059,2.184.827,2.775a2.276,2.276,0,0,0,1.063.354h.649" transform="translate(-429.5 -376.923)" fill="#f7f7f7"/>
        </g>
        <path id="Path_23362" data-name="Path 23362" d="M439.478,372.131a1.649,1.649,0,0,1,.472,1.181,1.512,1.512,0,0,1-.472,1.122c-.708.708-2.125.472-2.421,1.358-.236-.826-.708-2.834.118-3.719a1.648,1.648,0,0,1,1.181-.472A2.194,2.194,0,0,1,439.478,372.131Z" transform="translate(-360.841 -363.807)" fill="#f7f7f7"/>
        <g id="Group_48689" data-name="Group 48689" transform="translate(104.73 6.317)">
          <path id="Path_23363" data-name="Path 23363" d="M487.548,383.252h5.313c1.83-.059,2.893-.945,2.893-2.834V375.4h2.538v5.136c0,3.07-1.771,5.018-5.136,5.018H485.6" transform="translate(-485.6 -371.681)" fill="#f7f7f7"/>
          <path id="Path_23364" data-name="Path 23364" d="M502.9,374.059v-2.893c0-1.417,1-2.066,2.539-2.066v4.31" transform="translate(-492.687 -369.1)" fill="#f7f7f7"/>
        </g>
        <path id="Path_23365" data-name="Path 23365" d="M598.3,380.253V377.36A2.313,2.313,0,0,1,600.839,375v4.6" transform="translate(-427.036 -365.199)" fill="#f7f7f7"/>
        <path id="Path_23366" data-name="Path 23366" d="M627.7,379.31v-2.243c0-1.358,1.063-2.066,2.539-2.066v4.6" transform="translate(-439.079 -365.2)" fill="#f7f7f7"/>
        <g id="Group_48690" data-name="Group 48690" transform="translate(53.841 6.494)">
          <path id="Path_23367" data-name="Path 23367" d="M399.4,383.252h8.088c1.83-.059,2.893-.945,2.893-2.834V375.4h2.539v5.136c0,3.07-1.771,5.018-5.136,5.018h-8.324" transform="translate(-399.4 -371.858)" fill="#f7f7f7"/>
          <path id="Path_23368" data-name="Path 23368" d="M417.9,374.359v-2.893c0-1.358,1-2.066,2.539-2.066v4.31" transform="translate(-406.978 -369.4)" fill="#f7f7f7"/>
        </g>
        <g id="Group_48691" data-name="Group 48691" transform="translate(41.798 9.741)">
          <path id="Path_23369" data-name="Path 23369" d="M385.081,381.217v-1.889a2.038,2.038,0,0,0-.3-1.063c-.59-.886-1.83-.826-2.775-.826h-.945c-1.417,0-2.066-1-2.066-2.539h2.3a9.967,9.967,0,0,1,3.6.413,3.985,3.985,0,0,1,2.657,3.837v1.83" transform="translate(-379 -374.9)" fill="#f7f7f7"/>
        </g>
        <path id="Path_23370" data-name="Path 23370" d="M351,385.554V375.4h2.538v10.154Z" transform="translate(-325.733 -365.364)" fill="#f7f7f7"/>
        <path id="Path_23371" data-name="Path 23371" d="M351,374.359v-2.893c0-1.358,1-2.066,2.538-2.066v4.31" transform="translate(-325.733 -362.906)" fill="#f7f7f7"/>
        <g id="Group_48692" data-name="Group 48692" transform="translate(14.759 9.8)">
          <path id="Path_23372" data-name="Path 23372" d="M340.048,381.258v-1.83a2.04,2.04,0,0,0-.3-1.063c-.59-.885-1.83-.827-2.775-.827h-1.712c-1.358,0-2.066-1-2.066-2.539h3.129a9.967,9.967,0,0,1,3.6.413,4.161,4.161,0,0,1,2.6,4.014v1.83" transform="translate(-333.2 -375)" fill="#f7f7f7"/>
          <path id="Path_23373" data-name="Path 23373" d="M336.959,386.816h1.535c.945,0,2.185.059,2.775-.826a2.209,2.209,0,0,0,.3-1.063v-.649l2.479-.177v.649a4.107,4.107,0,0,1-2.6,4.014,9.968,9.968,0,0,1-3.6.413H336.9" transform="translate(-334.716 -378.728)" fill="#f7f7f7"/>
        </g>
        <path id="Path_23374" data-name="Path 23374" d="M338.978,394.231a1.648,1.648,0,0,1,.472,1.181,1.511,1.511,0,0,1-.472,1.122c-.709.709-2.125.472-2.421,1.358-.236-.827-.708-2.834.118-3.719a1.648,1.648,0,0,1,1.181-.472A1.81,1.81,0,0,1,338.978,394.231Z" transform="translate(-319.673 -372.86)" fill="#f7f7f7"/>
        <g id="Group_48693" data-name="Group 48693" transform="translate(0 9.859)">
          <path id="Path_23375" data-name="Path 23375" d="M316.7,383.129h1.83a2.04,2.04,0,0,0,1.063-.3c.886-.59.826-1.83.826-2.775v-2.893c0-1.358,1-2.066,2.539-2.066v4.31a9.967,9.967,0,0,1-.413,3.6,3.934,3.934,0,0,1-4.014,2.421H316.7" transform="translate(-311.682 -375.1)" fill="#f7f7f7"/>
          <path id="Path_23376" data-name="Path 23376" d="M313.277,387.354h-.649a3.964,3.964,0,0,1-4.015-2.421,7.66,7.66,0,0,1-.413-3.188V379.8c1.476-.059,2.539.649,2.539,2.066v.177c0,.945-.059,2.184.826,2.775a1.713,1.713,0,0,0,1.063.3h.649" transform="translate(-308.2 -377.023)" fill="#f7f7f7"/>
          <path id="Path_23377" data-name="Path 23377" d="M325.579,383.09c0,.945-.059,2.184.827,2.775a2.276,2.276,0,0,0,1.063.354h4.6v2.3h-4.546a3.965,3.965,0,0,1-4.015-2.421,9.97,9.97,0,0,1-.413-3.6" transform="translate(-314.304 -378.131)" fill="#f7f7f7"/>
        </g>
        <path id="Path_23378" data-name="Path 23378" d="M318.178,372.472a1.648,1.648,0,0,1,.472,1.181,1.755,1.755,0,0,1-.472,1.181c-.708.708-2.125.472-2.42,1.358-.236-.826-.708-2.834.118-3.719a1.649,1.649,0,0,1,1.181-.472A1.475,1.475,0,0,1,318.178,372.472Z" transform="translate(-311.152 -363.971)" fill="#f7f7f7"/>
        <path id="Path_23379" data-name="Path 23379" d="M464.82,385.391h-8.5a5.186,5.186,0,0,1-2.716-9.682,5.642,5.642,0,0,1,3.542-.649c3.247.472,3.424,3.306,2.125,3.9-.59-2.184-5.136-2.421-5.786.649a2.729,2.729,0,0,0,2.775,3.483h7.97" transform="translate(-366.702 -365.201)" fill="#f7f7f7"/>
        <path id="Path_23380" data-name="Path 23380" d="M457.6,384.113V378.8l2.539.236v6.671c0,3.07-1.771,5.018-5.136,5.018-2.539,0-4.487-1.358-3.719-4.014a3.815,3.815,0,0,0,3.424,1.712c1.83-.059,2.892-.945,2.892-2.834Z" transform="translate(-366.742 -366.757)" fill="#f7f7f7"/>
        <g id="Group_48694" data-name="Group 48694" transform="translate(29.88 9.802)">
          <path id="Path_23381" data-name="Path 23381" d="M367.72,385.391h-3.6a5.186,5.186,0,0,1-2.716-9.682,5.642,5.642,0,0,1,3.542-.649c3.247.472,3.424,3.306,2.125,3.955-.59-2.184-5.136-2.421-5.786.649a2.729,2.729,0,0,0,2.775,3.483h3.129" transform="translate(-358.813 -375.003)" fill="#f7f7f7"/>
          <path id="Path_23382" data-name="Path 23382" d="M365.3,384.113V378.8l2.539.236v6.671c0,3.07-1.771,5.018-5.136,5.018-2.539,0-4.487-1.358-3.719-4.014a3.814,3.814,0,0,0,3.424,1.712c1.83-.059,2.893-.945,2.893-2.834Z" transform="translate(-358.813 -376.558)" fill="#f7f7f7"/>
        </g>
        <g id="Group_48695" data-name="Group 48695" transform="translate(44.75 6.494)">
          <path id="Path_23383" data-name="Path 23383" d="M386.6,383.252h6.73c1.83-.059,2.893-.945,2.893-2.834V375.4h2.539v5.136c0,3.07-1.771,5.018-5.136,5.018H384" transform="translate(-384 -371.858)" fill="#f7f7f7"/>
          <path id="Path_23384" data-name="Path 23384" d="M404.7,374.359v-2.893c0-1.358,1-2.066,2.539-2.066v4.31" transform="translate(-392.479 -369.4)" fill="#f7f7f7"/>
        </g>
        <path id="Path_23385" data-name="Path 23385" d="M386.921,384.1v.649a4.158,4.158,0,0,1-2.657,4.014,10.181,10.181,0,0,1-3.6.413H377.3c-.059-1.476.649-2.3,2.066-2.3h1.948c.945,0,2.185.059,2.775-.827a1.782,1.782,0,0,0,.3-1.122v-.649" transform="translate(-336.504 -368.928)" fill="#f7f7f7"/>
        <path id="Path_23386" data-name="Path 23386" d="M638.3,379.31v-2.243c0-1.358,1.063-2.066,2.539-2.066v4.6" transform="translate(-443.421 -365.2)" fill="#f7f7f7"/>
        <g id="Group_48696" data-name="Group 48696" transform="translate(119.431 9.8)">
          <path id="Path_23387" data-name="Path 23387" d="M517.407,381.258v-1.83a2.213,2.213,0,0,0-.295-1.063c-.59-.885-1.83-.827-2.775-.827h-1.771c-1.358,0-2.066-1-2.066-2.539h3.129a9.964,9.964,0,0,1,3.6.413,4.013,4.013,0,0,1,2.421,4.014v1.83" transform="translate(-510.5 -375)" fill="#f7f7f7"/>
          <path id="Path_23388" data-name="Path 23388" d="M519.749,384v.649a3.965,3.965,0,0,1-2.42,4.015,9.969,9.969,0,0,1-3.6.413H510.6c-.059-1.476.649-2.362,2.066-2.3h1.712c.945,0,2.184.059,2.775-.768a2.21,2.21,0,0,0,.295-1.063V384.3" transform="translate(-510.539 -378.687)" fill="#f7f7f7"/>
        </g>
        <g id="Group_48697" data-name="Group 48697" transform="translate(96.938 13.578)">
          <path id="Path_23389" data-name="Path 23389" d="M477.6,391.2a4.908,4.908,0,1,1,5.2-4.9A5.071,5.071,0,0,1,477.6,391.2Zm0-7.5a2.708,2.708,0,0,0-2.834,2.539,2.671,2.671,0,0,0,2.834,2.539,2.554,2.554,0,1,0,0-5.077Z" transform="translate(-472.4 -381.4)" fill="#f7f7f7"/>
        </g>
      </g>
      <g id="Group_48699" data-name="Group 48699" transform="translate(115.121 76.47)">
        <path id="Path_23390" data-name="Path 23390" d="M252.948,388A1.984,1.984,0,0,1,251,386.225a2.2,2.2,0,0,1,.472-1.476c.472.472.827.767.827.767a1.133,1.133,0,0,0-.177.708.776.776,0,0,0,.767.59h3.483c.3,0,.472-.177.472-.531V384.1h1.181v2.125A1.569,1.569,0,0,1,256.431,388Zm2.3.472v1H254.07v-1Z" transform="translate(-251 -380.912)" fill="#fbfbfb"/>
        <path id="Path_23391" data-name="Path 23391" d="M264.4,389.963V388.9h1v1.063Z" transform="translate(-256.489 -382.878)" fill="#fbfbfb"/>
        <path id="Path_23392" data-name="Path 23392" d="M272.641,383.6a2.013,2.013,0,0,1,2.066,2.066,2.109,2.109,0,0,1-2.066,2.184,2,2,0,0,1-2.007-1.771.877.877,0,0,1-.413.059h-.709a.5.5,0,0,0-.531.531v2.6H267.8v-2.479a1.569,1.569,0,0,1,1.594-1.771h.945a.4.4,0,0,0,.413-.236A2.009,2.009,0,0,1,272.641,383.6Zm.827,2.066c0-.59-.236-1.122-.885-1.122s-.827.531-.827,1.122c0,.708.236,1.181.827,1.181C273.29,386.906,273.467,386.375,273.467,385.666Z" transform="translate(-257.882 -380.707)" fill="#fbfbfb"/>
        <path id="Path_23393" data-name="Path 23393" d="M280.8,389.963V388.9h1v1.063Z" transform="translate(-263.207 -382.878)" fill="#fbfbfb"/>
        <path id="Path_23394" data-name="Path 23394" d="M288.787,382.183h1.181v2.066c0,.59.354.886.708.886.59,0,.708-.413.708-.886v-2.125h1.181v2.066c0,.59.354.885.708.885.59,0,.709-.413.709-.885v-2.362h1.181v2.362c0,.885-.3,1.712-1.358,1.712a1.482,1.482,0,0,0-2.6,0,1.461,1.461,0,0,1-1.358-.649,2.731,2.731,0,0,1-2.716,2.007,2.9,2.9,0,0,1-2.834-2.952,4.729,4.729,0,0,1,.177-1.358h1.24a3.632,3.632,0,0,0-.236,1.358,1.8,1.8,0,0,0,1.653,1.771,1.726,1.726,0,0,0,1.712-1.771v-2.125Zm2.893-2.066v1H290.5v-1Zm.827-1.417v.945h-1.122V378.7Zm.886,1.417v1h-1.181v-1Z" transform="translate(-264.641 -378.7)" fill="#fbfbfb"/>
      </g>
    </g>
    <g id="Group_48701" data-name="Group 48701" transform="translate(171.357 340.988)">
      <path id="Path_23395" data-name="Path 23395" d="M258.366,405.568c4.192,2.125,3.837,9.977-.767,11.394a34.076,34.076,0,0,1-6.2.3V406.925a1.88,1.88,0,0,1,2.066-2.125h2.3A5.885,5.885,0,0,1,258.366,405.568Zm.059,7.793c.767-1.476.767-3.955-.472-5.254a3.181,3.181,0,0,0-2.184-.886h-2.007v7.734C255.887,415.013,257.481,415.19,258.425,413.36Z" transform="translate(-251.4 -404.739)" fill="#f7f7f7"/>
      <path id="Path_23396" data-name="Path 23396" d="M273.7,413.619a3.467,3.467,0,0,0,2.657.472c2.243-.177,1.122-2.361-.768-2.243a2.782,2.782,0,0,0-2.6,2.775A2.738,2.738,0,0,0,275,417.516a2.969,2.969,0,0,0,2.656-.885l1.889.885a4.471,4.471,0,0,1-4.014,2.007c-4.723,0-5.963-5.49-3.424-8.206a4.892,4.892,0,0,1,3.6-1.417c4.369,0,5.313,4.959,1.594,5.9C274.761,416.453,272.99,415.39,273.7,413.619Z" transform="translate(-259.353 -406.829)" fill="#f7f7f7"/>
      <path id="Path_23397" data-name="Path 23397" d="M290.643,417.357H288.4V406.73c0-1.122.886-1.83,2.243-1.83Z" transform="translate(-266.556 -404.78)" fill="#f7f7f7"/>
      <path id="Path_23398" data-name="Path 23398" d="M300.064,409.995a3.275,3.275,0,0,1,2.539.945,2.245,2.245,0,0,1,.531.767c.177-1,1.535-1.653,2.657-1.712a3.4,3.4,0,0,1,2.6.945,3.316,3.316,0,0,1,.767,2.42v6.081h-2.3c0-1.181,0-5.313-.118-6.2a1.244,1.244,0,0,0-1.3-1.181c-.827,0-1.476.531-1.417,1.24a1.179,1.179,0,0,1-.59-.472v6.612h-2.243a52.987,52.987,0,0,0-.118-6.2,1.365,1.365,0,0,0-1.358-1.122,1.151,1.151,0,0,0-1.3,1.181,1.158,1.158,0,0,1-.708-.767v6.907h-2.3V410.29h2.3v1.063C297.939,410.467,299.237,410.054,300.064,409.995Z" transform="translate(-269.424 -406.864)" fill="#f7f7f7"/>
      <path id="Path_23399" data-name="Path 23399" d="M330.124,417.342a4.85,4.85,0,0,1-8.855-3.778c.649-2.066,4.073-1.889,4.31.118a1.459,1.459,0,0,0-2.184,1.358,2.513,2.513,0,1,0,5.018-.059,2.483,2.483,0,0,0-3.07-2.6,2.574,2.574,0,0,0-3.188-.413,4.79,4.79,0,0,1,3.719-1.771A4.73,4.73,0,0,1,330.124,417.342Z" transform="translate(-279.944 -406.95)" fill="#f7f7f7"/>
      <path id="Path_23400" data-name="Path 23400" d="M344.641,409.995a3.275,3.275,0,0,1,2.539.945,3.316,3.316,0,0,1,.767,2.42v6.081H345.7a52.989,52.989,0,0,0-.118-6.2,1.383,1.383,0,0,0-1.417-1.122,1.151,1.151,0,0,0-1.3,1.181,1.389,1.389,0,0,1-.768-.767v6.907h-2.3v-9.21h2.3v1.063A3.367,3.367,0,0,1,344.641,409.995Z" transform="translate(-287.612 -406.864)" fill="#f7f7f7"/>
      <path id="Path_23401" data-name="Path 23401" d="M368.864,404.9c5.786,0,4.959,8.678,0,8.678-2.48,0-2.538-1.889-1.889-2.775.236.472,1.476.59,2.007.472,1.889-.354,2.243-4.073-.413-4.073h-2.007v10.1H364.2V407.084c0-1.3.531-2.184,1.948-2.184Z" transform="translate(-297.607 -404.78)" fill="#f7f7f7"/>
      <path id="Path_23402" data-name="Path 23402" d="M390.924,417.342a4.85,4.85,0,0,1-8.855-3.778c.649-2.066,4.073-1.889,4.31.118a1.459,1.459,0,0,0-2.184,1.358,2.513,2.513,0,1,0,5.018-.059,2.483,2.483,0,0,0-3.07-2.6,2.574,2.574,0,0,0-3.188-.413,4.79,4.79,0,0,1,3.719-1.771A4.73,4.73,0,0,1,390.924,417.342Z" transform="translate(-304.849 -406.95)" fill="#f7f7f7"/>
      <path id="Path_23403" data-name="Path 23403" d="M404.3,414.787c0,.827-.059,2.007.768,2.539a1.918,1.918,0,0,0,1.948,0c.768-.531.708-1.653.708-2.479v-2.657c0-1.24.945-1.889,2.3-1.889v3.9a10.589,10.589,0,0,1-.354,3.306,3.615,3.615,0,0,1-3.66,2.243,3.491,3.491,0,0,1-3.719-2.539,9.674,9.674,0,0,1-.3-2.657v-4.192h2.3Z" transform="translate(-313.091 -406.992)" fill="#f7f7f7"/>
      <path id="Path_23404" data-name="Path 23404" d="M422.043,417.357H419.8V406.73c0-1.122.886-1.83,2.244-1.83Z" transform="translate(-320.383 -404.78)" fill="#f7f7f7"/>
      <path id="Path_23405" data-name="Path 23405" d="M430.347,404.9v3.306h2.066c0,.945-.3,1.889-1.535,1.889h-.472v5.018c0,.768,1.358.59,1.712.059.886,2.362-3.9,3.247-3.9.236V410.1H427.1v-1.889h1.122V406.73C428.1,405.431,429.166,404.9,430.347,404.9Z" transform="translate(-323.373 -404.78)" fill="#f7f7f7"/>
      <path id="Path_23406" data-name="Path 23406" d="M441.707,410.174v1.181a2.135,2.135,0,0,1,1.83-1.358c1.948-.118,2.48,2.066,1.476,2.775-.413-1.181-2.775-.708-2.952,1.3-.059.59-.059,1.181-.059,1.594v3.719h-2.3v-9.21Z" transform="translate(-328.535 -406.866)" fill="#f7f7f7"/>
      <path id="Path_23407" data-name="Path 23407" d="M452.736,419.333a3.372,3.372,0,0,0,3.129,1.535c1.712-.059,2.6-.827,2.6-2.6-.3.885-1.712,1.3-2.6,1.358a3.066,3.066,0,0,1-3.365-3.306V410.3h2.243c0,1.181-.059,5.254.118,6.14a1.365,1.365,0,0,0,1.358,1.122,1.391,1.391,0,0,0,1.476-1.24.756.756,0,0,1,.59.649v-6.612h2.3v8.088c0,2.775-1.594,4.546-4.664,4.546C453.8,422.993,452.028,421.753,452.736,419.333Z" transform="translate(-333.778 -406.992)" fill="#f7f7f7"/>
      <path id="Path_23408" data-name="Path 23408" d="M484.435,407a3.991,3.991,0,0,0-3.129,4.014,4.092,4.092,0,0,0,5.844,3.838,6.442,6.442,0,0,0,1.771-1.358l1.535,1.653a6.418,6.418,0,0,1-5.136,2.361c-5.727,0-7.557-6.022-5.491-9.682,1.3-2.361,3.424-3.07,5.786-3.129,2.48-.059,6.14,1.476,3.66,4.428C488.685,407.355,486.265,406.588,484.435,407Z" transform="translate(-344.637 -404.697)" fill="#f7f7f7"/>
      <path id="Path_23409" data-name="Path 23409" d="M508.424,417.342a4.85,4.85,0,0,1-8.855-3.778c.65-2.066,4.073-1.889,4.31.118a1.459,1.459,0,0,0-2.184,1.358,2.513,2.513,0,1,0,5.018-.059,2.483,2.483,0,0,0-3.07-2.6,2.574,2.574,0,0,0-3.188-.413,4.79,4.79,0,0,1,3.719-1.771A4.73,4.73,0,0,1,508.424,417.342Z" transform="translate(-352.982 -406.95)" fill="#f7f7f7"/>
      <path id="Path_23410" data-name="Path 23410" d="M521.782,409.995a3.275,3.275,0,0,1,2.539.945,2.247,2.247,0,0,1,.531.767c.177-1,1.535-1.653,2.657-1.712a3.4,3.4,0,0,1,2.6.945,3.329,3.329,0,0,1,.827,2.42v6.081h-2.3c0-1.181,0-5.313-.118-6.2a1.244,1.244,0,0,0-1.3-1.181c-.827,0-1.476.531-1.417,1.24a1.18,1.18,0,0,1-.591-.472v6.612h-2.243c0-1.181.059-5.313-.118-6.2a1.365,1.365,0,0,0-1.358-1.122,1.151,1.151,0,0,0-1.3,1.181,1.158,1.158,0,0,1-.708-.767v6.907H517V410.29h2.3v1.063A3.058,3.058,0,0,1,521.782,409.995Z" transform="translate(-360.199 -406.864)" fill="#f7f7f7"/>
      <path id="Path_23411" data-name="Path 23411" d="M544.561,411.244c2.657-2.657,7.143-.827,7.143,3.6a4.584,4.584,0,0,1-4.427,4.782c-2.362-.118-2.6-2.066-2.243-2.834a2.3,2.3,0,0,0,1.889.767c3.247,0,3.306-5.372,0-5.372-1.889,0-2.421,1.889-2.421,3.483v7.261h-2.3v-10.8c0-1.24,1.063-1.889,2.3-1.83v.945Z" transform="translate(-370.522 -406.873)" fill="#f7f7f7"/>
      <path id="Path_23412" data-name="Path 23412" d="M566.1,418.48c-2.656,2.657-7.2.826-7.2-3.6a4.557,4.557,0,0,1,4.487-4.782,2.13,2.13,0,0,1,2.184,2.893,2.3,2.3,0,0,0-1.889-.767c-3.306,0-3.365,5.431,0,5.431,1.889,0,2.421-1.889,2.421-3.542v-3.778h2.3v9.151h-2.3Z" transform="translate(-377.363 -406.907)" fill="#f7f7f7"/>
      <path id="Path_23413" data-name="Path 23413" d="M581.582,409.995a3.274,3.274,0,0,1,2.538.945,3.33,3.33,0,0,1,.827,2.42v6.081H582.7a52.987,52.987,0,0,0-.118-6.2,1.382,1.382,0,0,0-1.417-1.122,1.151,1.151,0,0,0-1.3,1.181,1.39,1.39,0,0,1-.768-.767v6.907h-2.3v-9.21h2.3v1.063A3.16,3.16,0,0,1,581.582,409.995Z" transform="translate(-384.696 -406.864)" fill="#f7f7f7"/>
      <path id="Path_23414" data-name="Path 23414" d="M592.036,419.333a3.373,3.373,0,0,0,3.129,1.535c1.712-.059,2.6-.827,2.6-2.6-.3.885-1.712,1.3-2.6,1.358a3.066,3.066,0,0,1-3.365-3.306V410.3h2.243a51.945,51.945,0,0,0,.118,6.14,1.365,1.365,0,0,0,1.358,1.122,1.39,1.39,0,0,0,1.476-1.24.756.756,0,0,1,.59.649v-6.612h2.3v8.088c0,2.775-1.594,4.546-4.664,4.546C593.1,422.993,591.328,421.753,592.036,419.333Z" transform="translate(-390.84 -406.992)" fill="#f7f7f7"/>
      <path id="Path_23415" data-name="Path 23415" d="M613.3,415.081a1.046,1.046,0,0,1,1-1.181h1.417a2.106,2.106,0,0,1,1.653.767,1.686,1.686,0,0,1-.354,2.479,1.985,1.985,0,0,1,.118,3.66,2.951,2.951,0,0,1-1.358.236h-2.421v-5.963Zm1.358,4.664a6.687,6.687,0,0,0,1.535-.059c1.063-.3.827-1.476-.177-1.712-.3-.059-.945-.118-1.181.177-.354-.767-.177-1.3.886-1.476a.7.7,0,0,0,.59-.708.709.709,0,0,0-.649-.708,6.787,6.787,0,0,0-1.062-.059v4.546Z" transform="translate(-399.647 -408.467)" fill="#f7f7f7"/>
      <path id="Path_23416" data-name="Path 23416" d="M624.5,423.936a.575.575,0,0,1,.236.531.641.641,0,0,1-.236.531.575.575,0,0,1-.531.236.721.721,0,0,1-.531-.236.88.88,0,0,1-.236-.531.575.575,0,0,1,.236-.531.64.64,0,0,1,.531-.236A2.092,2.092,0,0,1,624.5,423.936Z" transform="translate(-403.703 -412.482)" fill="#f7f7f7"/>
      <path id="Path_23417" data-name="Path 23417" d="M629.425,415.766c.531.649,2.066,1.594,2.539,2.539a2.012,2.012,0,0,1-2.007,2.834,3.154,3.154,0,0,1-2.656-1.712l1.063-.767a2.518,2.518,0,0,0,1.3,1.181c.826.236,1.535-.413.944-1.181-.649-.827-2.539-1.771-2.539-3.129a1.9,1.9,0,0,1,1.948-1.83,2.26,2.26,0,0,1,1.594.531.919.919,0,0,1-.118,1.594C630.665,414.29,628.835,415,629.425,415.766Z" transform="translate(-405.382 -408.385)" fill="#f7f7f7"/>
      <path id="Path_23418" data-name="Path 23418" d="M638,423.936a.575.575,0,0,1,.236.531A.641.641,0,0,1,638,425a.576.576,0,0,1-.531.236.721.721,0,0,1-.531-.236.88.88,0,0,1-.236-.531.575.575,0,0,1,.236-.531.641.641,0,0,1,.531-.236A1.112,1.112,0,0,1,638,423.936Z" transform="translate(-409.233 -412.482)" fill="#f7f7f7"/>
      <path id="Path_23419" data-name="Path 23419" d="M643.967,415.1a2.28,2.28,0,0,0-1.771,2.3,2.309,2.309,0,0,0,3.365,2.184,3.5,3.5,0,0,0,1-.768l.885.945a3.765,3.765,0,0,1-2.951,1.358c-3.306,0-4.31-3.483-3.129-5.549a3.452,3.452,0,0,1,3.306-1.771c1.417,0,3.542.827,2.125,2.539A2.5,2.5,0,0,0,643.967,415.1Z" transform="translate(-410.951 -408.426)" fill="#f7f7f7"/>
    </g>
  </g>
</svg>
