<svg id="Icon_ionic-ios-wallet" data-name="Icon ionic-ios-wallet" xmlns="http://www.w3.org/2000/svg" width="45.66" height="42.149" viewBox="0 0 45.66 42.149">
  <path id="Path_2001" data-name="Path 2001" d="M42.449,11.25H9.961a6.591,6.591,0,0,0-6.586,6.586v18.44a6.591,6.591,0,0,0,6.586,6.586H42.449a6.591,6.591,0,0,0,6.586-6.586V17.836A6.591,6.591,0,0,0,42.449,11.25Z" transform="translate(-3.375 -0.712)" fill="#aca7a7"/>
  <path id="Path_2002" data-name="Path 2002" d="M35.112,4.61,9.329,9.648c-1.976.439-4.829,2.426-4.829,4.84A6.916,6.916,0,0,1,9.878,12.4h31.5v-2.25a6.3,6.3,0,0,0-1.526-4.127h0A5.191,5.191,0,0,0,35.112,4.61Z" transform="translate(-2.744 -4.499)" fill="#aca7a7"/>
</svg>
