<svg xmlns="http://www.w3.org/2000/svg" width="21.795" height="17.125" viewBox="0 0 27.946 27.946">
  <path id="Icon_ionic-logo-whatsapp" data-name="Icon ionic-logo-whatsapp" d="M16.476,2.25A13.666,13.666,0,0,0,2.757,15.863a13.472,13.472,0,0,0,1.969,7.029L2.25,30.2l7.6-2.413A13.742,13.742,0,0,0,30.2,15.863,13.666,13.666,0,0,0,16.476,2.25ZM23.3,21.033A3.544,3.544,0,0,1,20.872,22.6c-.643.034-.662.5-4.169-1.025s-5.617-5.23-5.784-5.469a6.728,6.728,0,0,1-1.294-3.646A3.887,3.887,0,0,1,10.959,9.6a1.344,1.344,0,0,1,.95-.4c.276,0,.455-.008.66,0s.511-.043.777.664.9,2.442.982,2.619a.636.636,0,0,1,.006.61,2.383,2.383,0,0,1-.372.567c-.183.2-.385.439-.548.589-.182.166-.372.348-.181.7a10.5,10.5,0,0,0,1.858,2.479,9.572,9.572,0,0,0,2.751,1.829c.344.187.549.167.763-.058s.913-.982,1.16-1.32.478-.273.795-.145,2.006,1.033,2.35,1.22.573.283.656.43A2.881,2.881,0,0,1,23.3,21.033Z" transform="translate(-2.25 -2.25)" fill="#E31D1A"/>
</svg>
