<svg xmlns="http://www.w3.org/2000/svg" width="18.053" height="18.035" viewBox="0 0 18.053 18.035">
  <g id="recipe-_1_" transform="translate(-0.129 511.723)">
    <path id="Path_23482" data-name="Path 23482" d="M2.418-511.68a2.819,2.819,0,0,0-2.254,2.346c-.032.2-.039,1.94-.032,6.791.011,7.13,0,6.558.2,7.115a2.978,2.978,0,0,0,1.545,1.545c.547.2.275.194,4.593.194s4.046.011,4.593-.194a2.953,2.953,0,0,0,1.545-1.545c.2-.529.194-.455.194-2.78v-2.152l-.1-.145a.63.63,0,0,0-.6-.31.549.549,0,0,0-.374.1.929.929,0,0,0-.226.229l-.085.134-.018,2.1-.018,2.1-.131.268a1.356,1.356,0,0,1-.691.674l-.236.113H2.612l-.236-.113a1.356,1.356,0,0,1-.691-.674l-.131-.268v-13.091l.113-.236a1.356,1.356,0,0,1,.674-.691l.268-.131h7.729l.236.113a1.336,1.336,0,0,1,.688.674l.134.265.018.691c.018.649.021.7.1.826a.928.928,0,0,0,.226.229.535.535,0,0,0,.377.1.535.535,0,0,0,.377-.1.928.928,0,0,0,.226-.229c.081-.131.085-.155.085-.875a2.886,2.886,0,0,0-.194-1.365A3.015,3.015,0,0,0,12-510.9a2.967,2.967,0,0,0-.928-.624c-.547-.2-.247-.194-4.5-.2C3.43-511.725,2.6-511.718,2.418-511.68Z" transform="translate(0 0)" fill="#f5f5f5"/>
    <path id="Path_23483" data-name="Path 23483" d="M83.848-435.748a.811.811,0,0,0-.427.444,3.166,3.166,0,0,0-.039.564v.43l-.148.039a3.792,3.792,0,0,0-1.729,1.02,3.473,3.473,0,0,0-.924,2.265c0,.346,0,.381.092.515a.928.928,0,0,0,.229.226l.134.085h6.1l.134-.085a.928.928,0,0,0,.229-.226c.088-.134.1-.169.092-.515a3.526,3.526,0,0,0-2.649-3.284l-.145-.035-.014-.5c-.011-.455-.018-.515-.1-.635A.758.758,0,0,0,83.848-435.748Zm.681,2.836a2,2,0,0,1,1.041.579,2.008,2.008,0,0,1,.494.741,16.394,16.394,0,0,1-1.976.039,16.394,16.394,0,0,1-1.976-.039,2.008,2.008,0,0,1,.494-.741A2.043,2.043,0,0,1,84.529-432.912Z" transform="translate(-77.613 -73.264)" fill="#f5f5f5"/>
    <path id="Path_23484" data-name="Path 23484" d="M354.491-399.55a3.2,3.2,0,0,0-1.1.557,3.693,3.693,0,0,0-1.055,1.683,4.245,4.245,0,0,0,.6,3.665,2.812,2.812,0,0,0,1.005.836l.318.159.018,3.341.018,3.341.085.134a.928.928,0,0,0,.226.229.549.549,0,0,0,.374.1.63.63,0,0,0,.6-.31l.1-.145.018-3.341.018-3.344.317-.159a2.761,2.761,0,0,0,1-.833,4.2,4.2,0,0,0-.056-4.939,2.8,2.8,0,0,0-1.351-.935A2.96,2.96,0,0,0,354.491-399.55Zm.952,1.485a2.021,2.021,0,0,1,.854,1.238,3.377,3.377,0,0,1,0,1.5,2.03,2.03,0,0,1-.861,1.242.7.7,0,0,1-.452.106.7.7,0,0,1-.452-.106,2.03,2.03,0,0,1-.861-1.242,3.376,3.376,0,0,1,0-1.5,1.872,1.872,0,0,1,1.027-1.319A1.015,1.015,0,0,1,355.444-398.065Z" transform="translate(-339.621 -108.178)" fill="#f5f5f5"/>
    <path id="Path_23485" data-name="Path 23485" d="M80.661-235.633a.791.791,0,0,0-.434.462.729.729,0,0,0,.31.808.759.759,0,0,0,.741-.011.634.634,0,0,0,.31-.593.631.631,0,0,0-.3-.586A.855.855,0,0,0,80.661-235.633Z" transform="translate(-77.248 -266.324)" fill="#f5f5f5"/>
    <path id="Path_23486" data-name="Path 23486" d="M160.661-235.69a.8.8,0,0,0-.434.462.73.73,0,0,0,.31.808l.134.085h3.281l.134-.085a.928.928,0,0,0,.229-.226.535.535,0,0,0,.1-.377.535.535,0,0,0-.1-.377.928.928,0,0,0-.229-.226l-.134-.085-1.587-.007C161.423-235.722,160.731-235.711,160.661-235.69Z" transform="translate(-154.426 -266.267)" fill="#f5f5f5"/>
    <path id="Path_23487" data-name="Path 23487" d="M80.661-155.633a.791.791,0,0,0-.434.462.729.729,0,0,0,.31.808.759.759,0,0,0,.741-.011.634.634,0,0,0,.31-.593.631.631,0,0,0-.3-.586A.855.855,0,0,0,80.661-155.633Z" transform="translate(-77.248 -343.502)" fill="#f5f5f5"/>
    <path id="Path_23488" data-name="Path 23488" d="M160.661-155.69a.8.8,0,0,0-.434.462.73.73,0,0,0,.31.808l.134.085h3.281l.134-.085a.928.928,0,0,0,.229-.226.535.535,0,0,0,.1-.377.535.535,0,0,0-.1-.377.928.928,0,0,0-.229-.226l-.134-.085-1.587-.007C161.423-155.722,160.731-155.711,160.661-155.69Z" transform="translate(-154.426 -343.445)" fill="#f5f5f5"/>
  </g>
</svg>
