<svg xmlns="http://www.w3.org/2000/svg" width="21.425" height="24.486" viewBox="0 0 21.425 24.486">
  <path id="Icon_awesome-address-book" data-name="Icon awesome-address-book" d="M20.852,7.652a.576.576,0,0,0,.574-.574V5.165a.576.576,0,0,0-.574-.574H19.9V2.3A2.3,2.3,0,0,0,17.6,0H2.3A2.3,2.3,0,0,0,0,2.3v19.9a2.3,2.3,0,0,0,2.3,2.3H17.6a2.3,2.3,0,0,0,2.3-2.3V19.9h.956a.576.576,0,0,0,.574-.574V17.408a.576.576,0,0,0-.574-.574H19.9V13.773h.956a.576.576,0,0,0,.574-.574V11.287a.576.576,0,0,0-.574-.574H19.9V7.652Zm-10.9-1.53A3.061,3.061,0,1,1,6.887,9.182,3.064,3.064,0,0,1,9.948,6.122ZM15.3,17.446a1,1,0,0,1-1.071.918H5.662a1,1,0,0,1-1.071-.918v-.918A3.012,3.012,0,0,1,7.8,13.773h.239a4.926,4.926,0,0,0,3.807,0h.239A3.012,3.012,0,0,1,15.3,16.528Z" fill="#aca7a7"/>
</svg>
