<svg xmlns="http://www.w3.org/2000/svg" width="17.103" height="15.407" viewBox="0 0 17.103 21.407">
  <g id="Icon_ionic-ios-notifications-outline" data-name="Icon ionic-ios-notifications-outline" transform="translate(-6.775 -3.93)">
    <path id="Path_2003" data-name="Path 2003" d="M19.014,28.336a.693.693,0,0,0-.68.546,1.341,1.341,0,0,1-.268.583,1.011,1.011,0,0,1-.861.316,1.028,1.028,0,0,1-.861-.316,1.341,1.341,0,0,1-.268-.583.693.693,0,0,0-.679-.546h0a.7.7,0,0,0-.68.851,2.391,2.391,0,0,0,2.488,1.985,2.386,2.386,0,0,0,2.488-1.985.7.7,0,0,0-.68-.851Z" transform="translate(-1.895 -5.834)" fill="#fff"/>
    <path id="Path_2004" data-name="Path 2004" d="M23.663,19.784c-.824-1.086-2.445-1.723-2.445-6.586,0-4.992-2.2-7-4.259-7.48-.193-.048-.332-.112-.332-.316V5.247A1.312,1.312,0,0,0,15.343,3.93h-.032a1.312,1.312,0,0,0-1.284,1.316V5.4c0,.2-.139.268-.332.316-2.06.487-4.259,2.488-4.259,7.48,0,4.864-1.621,5.495-2.445,6.586a1.062,1.062,0,0,0,.851,1.7H22.829A1.063,1.063,0,0,0,23.663,19.784Zm-2.087.31H9.1a.235.235,0,0,1-.177-.391,6.482,6.482,0,0,0,1.124-1.787,12.125,12.125,0,0,0,.765-4.719A8.205,8.205,0,0,1,11.93,8.553,3.433,3.433,0,0,1,14,7.077a1.875,1.875,0,0,0,1-.562.423.423,0,0,1,.637-.011,1.938,1.938,0,0,0,1.006.572,3.433,3.433,0,0,1,2.071,1.477A8.205,8.205,0,0,1,19.827,13.2a12.125,12.125,0,0,0,.765,4.719,6.556,6.556,0,0,0,1.15,1.814A.221.221,0,0,1,21.577,20.094Z" transform="translate(0 0)" fill="#fff"/>
  </g>
</svg>
