<svg xmlns="http://www.w3.org/2000/svg" width="28.5" height="28.5" viewBox="0 0 28.5 28.5">
  <path id="Icon_awesome-linkedin-in" data-name="Icon awesome-linkedin-in" d="M6.38,28.5H.471V9.473H6.38ZM3.422,6.877A3.438,3.438,0,1,1,6.844,3.423,3.451,3.451,0,0,1,3.422,6.877ZM28.494,28.5H22.6V19.238c0-2.208-.045-5.038-3.072-5.038-3.072,0-3.543,2.4-3.543,4.879V28.5h-5.9V9.473h5.667v2.6h.083A6.209,6.209,0,0,1,21.421,9C27.4,9,28.5,12.933,28.5,18.048V28.5Z" transform="translate(0 0)" fill="#fbfbfb"/>
</svg>
