<svg id="trolley-cart-_2_" xmlns="http://www.w3.org/2000/svg" width="17.878" height="17.871" viewBox="0 0 23.878 23.871">
  <path id="Path_345" data-name="Path 345" d="M16.595-495.71a.8.8,0,0,0-.294,1.224c.229.269.244.274,1.761.3l1.413.025,1.383,5.872c.761,3.229,1.388,5.916,1.393,5.966.015.08-.035.1-.289.159a2.378,2.378,0,0,0-1.846,2.483,2.325,2.325,0,0,0,.736,1.557,2.718,2.718,0,0,0,1.149.6c.184.04,2.374.05,7.29.045,7.006-.015,7.026-.015,7.16-.119a.7.7,0,0,0,.343-.667.7.7,0,0,0-.343-.667c-.134-.1-.164-.1-7.2-.129s-7.061-.025-7.2-.129a.7.7,0,0,1-.343-.667.7.7,0,0,1,.343-.667c.134-.1.164-.1,7.26-.129l7.125-.025.259-.109a2.557,2.557,0,0,0,1.368-1.219c.179-.373,1.931-7.827,1.931-8.205a2.421,2.421,0,0,0-.662-1.627,2.378,2.378,0,0,0-.945-.622l-.259-.109-8.335-.025-8.33-.025-.313-1.344c-.318-1.353-.368-1.493-.632-1.687-.129-.1-.2-.1-1.961-.114A9.647,9.647,0,0,0,16.595-495.71Zm21.4,4.822a.947.947,0,0,1,.423.667c0,.244-1.747,7.509-1.831,7.623a1.222,1.222,0,0,1-.229.224c-.134.1-.154.1-6.29.1H23.91l-.955-4.055c-.522-2.229-.985-4.195-1.025-4.369L21.854-491H37.792Z" transform="translate(-16.129 495.769)" fill="#fff"/>
  <path id="Path_346" data-name="Path 346" d="M145.862-111.889a2.41,2.41,0,0,0-1.722,2.881,2.4,2.4,0,0,0,2.886,1.742,2.4,2.4,0,0,0,1.742-2.876A2.4,2.4,0,0,0,145.862-111.889Zm.906,1.582a.781.781,0,0,1,.239,1.279.75.75,0,0,1-1.1,0A.786.786,0,0,1,146.768-110.307Z" transform="translate(-137.703 131.064)" fill="#fff"/>
  <path id="Path_347" data-name="Path 347" d="M321.862-111.889a2.41,2.41,0,0,0-1.722,2.881,2.4,2.4,0,0,0,2.886,1.742,2.4,2.4,0,0,0,1.742-2.876A2.4,2.4,0,0,0,321.862-111.889Zm.906,1.582a.781.781,0,0,1,.239,1.279.75.75,0,0,1-1.1,0A.786.786,0,0,1,322.768-110.307Z" transform="translate(-304.946 131.064)" fill="#fff"/>
</svg>
