<svg id="Icon_ionic-logo-instagram" data-name="Icon ionic-logo-instagram" xmlns="http://www.w3.org/2000/svg" width="27.708" height="27.708" viewBox="0 0 27.708 27.708">
  <path id="Path_19118" data-name="Path 19118" d="M24.127,6.809A5.79,5.79,0,0,1,29.9,12.582V24.127A5.79,5.79,0,0,1,24.127,29.9H12.582a5.79,5.79,0,0,1-5.773-5.773V12.582a5.79,5.79,0,0,1,5.773-5.773H24.127m0-2.309H12.582A8.105,8.105,0,0,0,4.5,12.582V24.127a8.105,8.105,0,0,0,8.082,8.082H24.127a8.105,8.105,0,0,0,8.082-8.082V12.582A8.105,8.105,0,0,0,24.127,4.5Z" transform="translate(-4.5 -4.5)" fill="#f7f7f7"/>
  <path id="Path_19119" data-name="Path 19119" d="M25.357,12.464a1.732,1.732,0,1,1,1.732-1.732A1.728,1.728,0,0,1,25.357,12.464Z" transform="translate(-3.998 -4.382)" fill="#f7f7f7"/>
  <path id="Path_19120" data-name="Path 19120" d="M18.177,13.559a4.618,4.618,0,1,1-4.618,4.618,4.622,4.622,0,0,1,4.618-4.618m0-2.309A6.927,6.927,0,1,0,25.1,18.177a6.929,6.929,0,0,0-6.927-6.927Z" transform="translate(-4.323 -4.323)" fill="#f7f7f7"/>
</svg>
