<svg xmlns="http://www.w3.org/2000/svg" width="18.078" height="22.231" viewBox="0 0 18.078 22.231">
  <g id="token-_1_" transform="translate(-47.833 512.005)">
    <path id="Path_23245" data-name="Path 23245" d="M126.2-511.876c-.174.1-.191.174-.2.7,0,.473.009.517.1.625a.3.3,0,0,0,.265.122.3.3,0,0,0,.265-.122c.1-.109.1-.152.1-.625,0-.53-.022-.6-.2-.7A.318.318,0,0,0,126.2-511.876Z" transform="translate(-74.772 -0.076)" fill="#aca7a7"/>
    <path id="Path_23246" data-name="Path 23246" d="M187.109-511.9l-.109.1v2.962l.109.1a.33.33,0,0,0,.5-.017l.126-.126v-2.884l-.126-.126A.33.33,0,0,0,187.109-511.9Z" transform="translate(-133.122 0)" fill="#aca7a7"/>
    <path id="Path_23247" data-name="Path 23247" d="M247.622-511.9l-.122.1v2.563l.1.113a.325.325,0,0,0,.265.113.326.326,0,0,0,.265-.113l.1-.113v-2.562l-.122-.1a.471.471,0,0,0-.248-.1A.471.471,0,0,0,247.622-511.9Z" transform="translate(-190.994 -0.004)" fill="#aca7a7"/>
    <path id="Path_23248" data-name="Path 23248" d="M308.126-511.879l-.126.126v2.884l.126.126a.33.33,0,0,0,.5.017l.109-.1v-2.962l-.109-.1A.33.33,0,0,0,308.126-511.879Z" transform="translate(-248.867 0)" fill="#aca7a7"/>
    <path id="Path_23249" data-name="Path 23249" d="M369.2-511.876c-.174.1-.191.174-.2.7,0,.473.009.517.1.625a.3.3,0,0,0,.265.122.3.3,0,0,0,.265-.122c.1-.109.1-.152.1-.625,0-.53-.022-.6-.2-.7A.318.318,0,0,0,369.2-511.876Z" transform="translate(-307.217 -0.076)" fill="#aca7a7"/>
    <path id="Path_23250" data-name="Path 23250" d="M65.394-468.359a.375.375,0,0,0-.182.174c-.03.074-.039,1.151-.035,2.988.013,2.7.017,2.867.083,2.745.043-.074.2-.3.361-.513l.287-.378v-4.852l-.1-.087A.342.342,0,0,0,65.394-468.359Z" transform="translate(-16.589 -41.712)" fill="#aca7a7"/>
    <path id="Path_23251" data-name="Path 23251" d="M430.261-468.594a.692.692,0,0,0-.161.113l-.1.087v4.852l.287.378c.156.213.317.439.36.512.065.122.069-.043.083-2.693,0-1.555,0-2.888-.013-2.967A.393.393,0,0,0,430.261-468.594Z" transform="translate(-365.568 -41.513)" fill="#aca7a7"/>
    <path id="Path_23252" data-name="Path 23252" d="M126.135-459.887l-.135.113v.908c0,.912,0,.912.109,1.016a.335.335,0,0,0,.261.109.335.335,0,0,0,.261-.109c.109-.1.109-.1.109-1.016v-.908l-.135-.113a.48.48,0,0,0-.235-.113A.48.48,0,0,0,126.135-459.887Z" transform="translate(-74.772 -49.746)" fill="#aca7a7"/>
    <path id="Path_23253" data-name="Path 23253" d="M369.135-459.887l-.135.113v.908c0,.912,0,.912.109,1.016a.364.364,0,0,0,.517,0l.113-.1v-1.82l-.135-.113a.479.479,0,0,0-.235-.113A.48.48,0,0,0,369.135-459.887Z" transform="translate(-307.217 -49.746)" fill="#aca7a7"/>
    <path id="Path_23254" data-name="Path 23254" d="M56.289-416.25a8.933,8.933,0,0,0-5.642,2.471,9.016,9.016,0,0,0-1.894,10.5,8.926,8.926,0,0,0,4.131,4.152,9.032,9.032,0,0,0,10.376-1.711,9.05,9.05,0,0,0,2.163-9.338,9.154,9.154,0,0,0-3.761-4.73A8.987,8.987,0,0,0,56.289-416.25Zm1.724,1.19a7.942,7.942,0,0,1,6.589,6.124,8.2,8.2,0,0,1-.217,4.2,4.131,4.131,0,0,1-.6,1.247.357.357,0,0,1-.447-.078.419.419,0,0,1-.126-.221,2.309,2.309,0,0,1,.174-.487,7.152,7.152,0,0,0-.695-7.127,8.493,8.493,0,0,0-1.65-1.651,8.988,8.988,0,0,0-1.941-.986,6.274,6.274,0,0,0-2.228-.326,5.623,5.623,0,0,0-1.338.1,7.342,7.342,0,0,0-2.615,1.068c-.226.148-.447.287-.486.3a.4.4,0,0,1-.408-.2c-.143-.274-.022-.43.66-.851a8.2,8.2,0,0,1,3-1.112A10.935,10.935,0,0,1,58.013-415.06Zm-.682,1.907a1.48,1.48,0,0,1,.356.248,10.021,10.021,0,0,1,.708,1.342c.313.656.608,1.234.652,1.277.069.07.313.122,1.286.269.66.1,1.29.209,1.394.239a1.2,1.2,0,0,1,.708.682,1.248,1.248,0,0,1-.048,1c-.056.1-.508.591-1,1.1s-.916.973-.947,1.025c-.048.087-.022.321.174,1.5.226,1.394.226,1.4.156,1.642a1.15,1.15,0,0,1-1.2.856c-.217-.013-.374-.087-1.42-.656a11.322,11.322,0,0,0-1.277-.638,11.734,11.734,0,0,0-1.277.638c-1.051.573-1.194.638-1.416.656a1.151,1.151,0,0,1-1.2-.856c-.069-.243-.069-.252.156-1.642.2-1.177.222-1.412.174-1.5-.03-.052-.456-.517-.947-1.025s-.943-1-1-1.095a1.244,1.244,0,0,1,.178-1.372c.261-.282.447-.339,1.794-.539a6.894,6.894,0,0,0,1.325-.256,8.012,8.012,0,0,0,.686-1.29,10.283,10.283,0,0,1,.717-1.359,1.179,1.179,0,0,1,.812-.352A1.046,1.046,0,0,1,57.331-413.153Zm-6.91,2.289a.5.5,0,0,1,.113.2,3.89,3.89,0,0,1-.191.508,7.006,7.006,0,0,0-.4,4.691,6.867,6.867,0,0,0,1.759,3.171,6.948,6.948,0,0,0,5.169,2.211,7,7,0,0,0,3.987-1.2c.491-.326.6-.348.795-.161.248.252.143.443-.456.838a7.973,7.973,0,0,1-5.1,1.247,7.877,7.877,0,0,1-5.807-3.492,7.985,7.985,0,0,1-1.286-3.509,10.254,10.254,0,0,1,.069-2.246,7.29,7.29,0,0,1,.812-2.289A.35.35,0,0,1,50.421-410.865Z" transform="translate(0 -91.58)" fill="#aca7a7"/>
    <path id="Path_23255" data-name="Path 23255" d="M147.8-329.83c-.1.056-.213.261-.482.834-.812,1.716-.838,1.763-1.025,1.911a1.325,1.325,0,0,1-.339.2c-.087.03-.717.143-1.4.243-1.333.2-1.39.221-1.459.491-.056.235.026.343.956,1.286a10.038,10.038,0,0,1,1.025,1.125c.165.326.156.565-.061,1.859-.239,1.42-.243,1.494-.074,1.668a.428.428,0,0,0,.226.126,12.189,12.189,0,0,0,1.251-.625,13.545,13.545,0,0,1,1.346-.673c.352-.078.552,0,1.794.673,1,.547,1.177.63,1.29.6a.414.414,0,0,0,.308-.4c0-.078-.091-.686-.2-1.351-.213-1.29-.226-1.555-.083-1.859a10.045,10.045,0,0,1,1.025-1.129,5.626,5.626,0,0,0,.969-1.09.476.476,0,0,0-.2-.482,12.2,12.2,0,0,0-1.277-.23c-1.394-.208-1.433-.217-1.681-.408-.221-.169-.274-.261-.969-1.733-.378-.8-.5-1-.591-1.056A.276.276,0,0,0,147.8-329.83Z" transform="translate(-91.115 -174.192)" fill="#aca7a7"/>
  </g>
</svg>
