<svg xmlns="http://www.w3.org/2000/svg" width="13.947" height="16.281" viewBox="0 0 17.947 21.281">
  <g id="user-_4_" transform="translate(0.489 0.504)">
    <path id="Path_339" data-name="Path 339" d="M133.3-511.761a4.831,4.831,0,0,0-2.808,1.487,4.722,4.722,0,0,0-1.325,3.133,4.862,4.862,0,0,0,2.209,4.3,4.537,4.537,0,0,0,2.233.773,4.747,4.747,0,0,0,3.922-1.447,4.732,4.732,0,0,0,1.376-3.863,4.714,4.714,0,0,0-1.662-3.24,4.512,4.512,0,0,0-2.479-1.142A5.193,5.193,0,0,0,133.3-511.761Zm1.689,1.245a3.394,3.394,0,0,1,1.614.936,3.425,3.425,0,0,1,1.118,2.284,3.6,3.6,0,0,1-.972,2.887,3.873,3.873,0,0,1-1.713,1.055,3.993,3.993,0,0,1-2.6-.238,3.818,3.818,0,0,1-2-2.5,4.912,4.912,0,0,1,.024-1.785,3.9,3.9,0,0,1,2.415-2.578A4.29,4.29,0,0,1,134.985-510.515Z" transform="translate(-125.699 511.813)" fill="#fbfbfb" stroke="#fff" stroke-width="1"/>
    <path id="Path_340" data-name="Path 340" d="M45.96-264.742a3.924,3.924,0,0,0-1.729.627c-1.237.841-2.038,2.72-2.225,5.219a4.95,4.95,0,0,0,.341,2.824,3.4,3.4,0,0,0,.96,1.134,3.953,3.953,0,0,0,1.217.547l.357.1h11.1l.357-.091a3.264,3.264,0,0,0,2.443-2.368,10.05,10.05,0,0,0-.048-3.24c-.416-2.578-1.471-4.124-3.141-4.608a4.2,4.2,0,0,0-1.265-.155,3.7,3.7,0,0,0-1.075.571,4.7,4.7,0,0,1-1.253.658,4.2,4.2,0,0,1-1.547.293,4.283,4.283,0,0,1-1.547-.278,5,5,0,0,1-1.388-.73,5.111,5.111,0,0,0-.888-.492A1.362,1.362,0,0,0,45.96-264.742Zm1.031,1.566a6.164,6.164,0,0,0,1.713.849,5.74,5.74,0,0,0,5.088-.785c.742-.488.726-.48,1.039-.44,1.44.182,2.34,1.392,2.721,3.664a10.232,10.232,0,0,1,.1,2.736,2.044,2.044,0,0,1-1.531,1.594c-.238.067-.551.071-5.687.071s-5.445,0-5.691-.071a2.152,2.152,0,0,1-1.34-1.059,3,3,0,0,1-.226-1.626,10.217,10.217,0,0,1,.206-1.963,7.942,7.942,0,0,1,.516-1.662A2.73,2.73,0,0,1,46-263.552c.147-.02.282-.036.3-.04S46.627-263.405,46.992-263.175Z" transform="translate(-41.966 274.573)" fill="#fbfbfb" stroke="#fff" stroke-width="1"/>
  </g>
</svg>
