<svg xmlns="http://www.w3.org/2000/svg" width="21.795" height="17.125" viewBox="0 0 18.154 18.189">
  <path id="Icon_feather-phone-call" data-name="Icon feather-phone-call" d="M14.412,4.976a4.346,4.346,0,0,1,3.433,3.433M14.412,1.5a7.822,7.822,0,0,1,6.909,6.9m-.869,6.935v2.607a1.738,1.738,0,0,1-1.895,1.738,17.2,17.2,0,0,1-7.5-2.668A16.948,16.948,0,0,1,5.843,11.8,17.2,17.2,0,0,1,3.175,4.264,1.738,1.738,0,0,1,4.9,2.369H7.512A1.738,1.738,0,0,1,9.25,3.864a11.159,11.159,0,0,0,.608,2.442A1.738,1.738,0,0,1,9.467,8.14l-1.1,1.1a13.906,13.906,0,0,0,5.215,5.215l1.1-1.1a1.738,1.738,0,0,1,1.834-.391,11.159,11.159,0,0,0,2.442.608A1.738,1.738,0,0,1,20.453,15.336Z" transform="translate(-3.168 -1.5)" fill="#E31D1A"/>
</svg>
