<svg xmlns="http://www.w3.org/2000/svg" width="49.243" height="32.893" viewBox="0 0 49.243 32.893">
  <path id="Icon_payment-cash" data-name="Icon payment-cash" d="M55.693,17.985V47.607a2.111,2.111,0,0,1-.481,1.154,1.572,1.572,0,0,1-1.154.482H8.084a1.567,1.567,0,0,1-1.154-.481,2.1,2.1,0,0,1-.481-1.154V17.984a2.108,2.108,0,0,1,.481-1.154,1.574,1.574,0,0,1,1.154-.481H54.057a1.577,1.577,0,0,1,1.154.481,2.118,2.118,0,0,1,.482,1.154Zm-3.27,21.352V26.256a6.291,6.291,0,0,1-4.617-1.924,6.4,6.4,0,0,1-1.924-4.713H16.259a6.408,6.408,0,0,1-1.924,4.713,6.3,6.3,0,0,1-4.617,1.924v13.08a6.3,6.3,0,0,1,4.617,1.924,6.412,6.412,0,0,1,1.924,4.713H45.882a6.407,6.407,0,0,1,1.924-4.713,6.3,6.3,0,0,1,4.617-1.923ZM39.246,32.8a16.856,16.856,0,0,1-.481,3.655,12.325,12.325,0,0,1-1.539,3.462,8.359,8.359,0,0,1-2.6,2.6,7.063,7.063,0,0,1-7.117,0,8.331,8.331,0,0,1-2.6-2.6,12.293,12.293,0,0,1-1.539-3.462A16.775,16.775,0,0,1,22.9,32.8a16.79,16.79,0,0,1,.481-3.655,12.287,12.287,0,0,1,1.539-3.462,8.359,8.359,0,0,1,2.6-2.6,7.062,7.062,0,0,1,7.116,0,8.4,8.4,0,0,1,2.6,2.6,12.33,12.33,0,0,1,1.539,3.462,16.839,16.839,0,0,1,.482,3.655Zm-13.08,6.54h9.81v-2.4h-3.27V25.391H29.82l-3.847,3.558,2.02,2.02a15.748,15.748,0,0,0,1.347-1.443h.1v7.405h-3.27v2.405Z" transform="translate(-6.449 -16.35)" fill="#e31d1a"/>
</svg>
