<svg xmlns="http://www.w3.org/2000/svg" width="23.752" height="19" viewBox="0 0 23.752 19">
  <path id="Icon_awesome-hands-helping" data-name="Icon awesome-hands-helping" d="M18.11,7.126H12.469V9.2a2.672,2.672,0,1,1-5.344,0V4.692L4.716,6.139A2.37,2.37,0,0,0,3.562,8.173V9.928L.593,11.643a1.185,1.185,0,0,0-.434,1.622l2.969,5.144a1.188,1.188,0,0,0,1.622.434l3.837-2.216h5.07a2.377,2.377,0,0,0,2.375-2.375h.594a1.186,1.186,0,0,0,1.188-1.188V10.689h.3A.889.889,0,0,0,19,9.8V8.017A.889.889,0,0,0,18.11,7.126Zm5.482-1.388L20.623.595A1.188,1.188,0,0,0,19,.16L15.163,2.376H11.37a2.393,2.393,0,0,0-1.258.36l-1.243.776a1.18,1.18,0,0,0-.557,1.006V9.2a1.484,1.484,0,0,0,2.969,0V5.939H18.11a2.08,2.08,0,0,1,2.078,2.078V9.075L23.157,7.36a1.189,1.189,0,0,0,.434-1.622Z" transform="translate(0.002 -0.001)" fill="#aca7a7"/>
</svg>
