<svg xmlns="http://www.w3.org/2000/svg" width="20.188" height="18.635" viewBox="0 0 20.188 18.635">
  <g id="Icon_ionic-md-wallet" data-name="Icon ionic-md-wallet" transform="translate(-3.375 -4.5)">
    <path id="Path_23187" data-name="Path 23187" d="M10.882,17.957V9.678a2.071,2.071,0,0,1,2.072-2.072h9.56V6.572A2.064,2.064,0,0,0,20.462,4.5H5.51A2.1,2.1,0,0,0,3.375,6.538V21.1A2.1,2.1,0,0,0,5.51,23.135H20.457a2.061,2.061,0,0,0,2.053-2.072V20.029H12.95A2.07,2.07,0,0,1,10.882,17.957Z" transform="translate(0 0)" fill="#aca7a7"/>
    <path id="Path_23188" data-name="Path 23188" d="M17.227,12.73v6.794A.779.779,0,0,0,18,20.3h9.075a.779.779,0,0,0,.776-.776V12.73a.779.779,0,0,0-.776-.776H18A.779.779,0,0,0,17.227,12.73Zm3.742,4.945a1.554,1.554,0,1,1,1.451-1.451A1.554,1.554,0,0,1,20.968,17.675Z" transform="translate(-4.291 -2.309)" fill="#aca7a7"/>
  </g>
</svg>
