<svg xmlns="http://www.w3.org/2000/svg" width="22.881" height="22.881" viewBox="0 0 22.881 22.881">
  <path id="Icon_awesome-check-circle" data-name="Icon awesome-check-circle" d="M23.443,12A11.44,11.44,0,1,1,12,.562,11.44,11.44,0,0,1,23.443,12ZM10.68,18.06l8.488-8.488a.738.738,0,0,0,0-1.044L18.124,7.485a.738.738,0,0,0-1.044,0l-6.922,6.922L6.926,11.175a.738.738,0,0,0-1.044,0L4.838,12.219a.738.738,0,0,0,0,1.044l4.8,4.8A.738.738,0,0,0,10.68,18.06Z" transform="translate(-0.563 -0.563)" fill="#b5b5b7"/>
</svg>
