<svg xmlns="http://www.w3.org/2000/svg" width="23.752" height="23.752" viewBox="0 0 23.752 23.752">
  <path id="Icon_ionic-md-settings" data-name="Icon ionic-md-settings" d="M24.27,16.438a7.427,7.427,0,0,0,.061-1.188c0-.416-.061-.772-.061-1.188L26.82,12.1a.545.545,0,0,0,.122-.772l-2.429-4.1A.591.591,0,0,0,23.784,7L20.747,8.185A8.84,8.84,0,0,0,18.682,7L18.257,3.85a.651.651,0,0,0-.607-.475H12.791a.651.651,0,0,0-.607.475L11.7,7A10.285,10.285,0,0,0,9.633,8.185L6.6,7a.569.569,0,0,0-.729.238l-2.429,4.1a.717.717,0,0,0,.122.772l2.612,1.959c0,.416-.061.772-.061,1.188s.061.772.061,1.188L3.621,18.4a.545.545,0,0,0-.122.772l2.429,4.1a.591.591,0,0,0,.729.238l3.037-1.188A8.838,8.838,0,0,0,11.759,23.5l.486,3.147a.589.589,0,0,0,.607.475H17.71a.651.651,0,0,0,.607-.475L18.8,23.5a10.279,10.279,0,0,0,2.065-1.188L23.905,23.5a.569.569,0,0,0,.729-.238l2.429-4.1a.716.716,0,0,0-.122-.772Zm-9.05,2.969a4.158,4.158,0,1,1,4.251-4.157A4.179,4.179,0,0,1,15.22,19.407Z" transform="translate(-3.375 -3.375)" fill="#aca7a7"/>
</svg>
