<svg xmlns="http://www.w3.org/2000/svg" width="24.34" height="24.381" viewBox="0 0 24.34 24.381">
  <g id="restaurant" transform="translate(-0.54 512)">
    <path id="Path_23303" data-name="Path 23303" d="M30.257-511.824a14.454,14.454,0,0,0-.553,1.782,5.934,5.934,0,0,0-.1,1.5,4.23,4.23,0,0,0,.129,1.467,6.314,6.314,0,0,0,.286.834c.348.81.333.8,5.149,5.621l4.53,4.535.576-.576.581-.576,3.844,4.3c2.115,2.367,3.958,4.421,4.092,4.563a2.184,2.184,0,0,0,2.005.724,2.136,2.136,0,0,0,1.543-3.054c-.138-.291-.862-1.024-10.637-10.8L31.215-512h-.881Z" transform="translate(-27.676)"/>
    <path id="Path_23304" data-name="Path 23304" d="M278.485-508.371c-1.443,1.448-2.691,2.729-2.768,2.849a3.789,3.789,0,0,0-.653,1.762,4.229,4.229,0,0,1-.119.624c-.043.114.043.214,1.586,1.753l1.634,1.634.362-.076a3.474,3.474,0,0,1,.491-.076,3.481,3.481,0,0,0,1.21-.367l.453-.219,2.763-2.753L286.207-506l-.476-.476a3.913,3.913,0,0,0-.524-.476c-.024,0-.91.862-1.963,1.915l-1.92,1.92-.5-.5-.5-.5,1.939-1.939L284.206-508l-.514-.51-.51-.515-1.943,1.944-1.939,1.939-.5-.5-.5-.5,1.92-1.92c1.053-1.053,1.915-1.939,1.915-1.963a7.273,7.273,0,0,0-.977-.977C281.129-511,279.928-509.814,278.485-508.371Z" transform="translate(-261.327 -0.952)"/>
    <path id="Path_23305" data-name="Path 23305" d="M4.415-216.442c-3.306,3.315-3.558,3.582-3.682,3.858a2.135,2.135,0,0,0,1.4,2.968,2.934,2.934,0,0,0,1.153-.019c.514-.157.572-.21,4.187-3.82L11.017-217l-1.5-1.5c-.824-.824-1.51-1.5-1.524-1.5S6.368-218.4,4.415-216.442Z" transform="translate(0 -278.09)"/>
  </g>
</svg>
