<svg xmlns="http://www.w3.org/2000/svg" width="21.231" height="20.45" viewBox="0 0 21.231 20.45">
  <g id="roast-chicken" transform="translate(-26 477.616)">
    <path id="Path_23300" data-name="Path 23300" d="M168.451-477.569a1.512,1.512,0,0,0-.3.152,1.272,1.272,0,0,0-.374.771,1.116,1.116,0,0,0,.277.674l.1.1-.517.738a6.677,6.677,0,0,1-.572.762.646.646,0,0,1-.258-.028,3.171,3.171,0,0,0-1.283.019,2.833,2.833,0,0,0-1.228.7,13.567,13.567,0,0,0-.983,1.311c-.563.821-.683,1.025-.6,1.006a10.716,10.716,0,0,1,4.2-.235,11.569,11.569,0,0,1,1.735.406.665.665,0,0,0,.217.06,2.138,2.138,0,0,0,.065-.323,2.529,2.529,0,0,0-.374-1.666l-.185-.309.54-.775.545-.78.18.065a.927.927,0,0,0,.937-.18.992.992,0,0,0,0-1.5,1.083,1.083,0,0,0-.734-.221c-.092.023-.111,0-.157-.148a1.092,1.092,0,0,0-.48-.545A1.072,1.072,0,0,0,168.451-477.569Z" transform="translate(-130.378 0)"/>
    <path id="Path_23301" data-name="Path 23301" d="M61.462-400.954a1.11,1.11,0,0,0-.678.9,1.029,1.029,0,0,0,.217.623l.12.148-.678.678-.683.683-.351-.143a1.851,1.851,0,0,0-.955-.143,2.354,2.354,0,0,0-.909.106,3.64,3.64,0,0,0-1.394.983l-.531.512-.429-.171a9.228,9.228,0,0,0-5.252-.5,8.728,8.728,0,0,0-3.646,1.689,7.759,7.759,0,0,0-2.686,4.467,6.137,6.137,0,0,0-.106,1.477,9.659,9.659,0,0,0,.037,1.117l.032.129H62.339l-.042-.235a3.266,3.266,0,0,0-2.289-2.418c-.111-.023-.157-.06-.175-.152a8.937,8.937,0,0,0-.258-.941l-.148-.452.623-.632a6.689,6.689,0,0,0,.766-.891,2.826,2.826,0,0,0,.138-2.46l-.092-.226.688-.688c.683-.683.683-.683.78-.6a1,1,0,0,0,1.435-.194,1.04,1.04,0,0,0,.055-1.006.912.912,0,0,0-.771-.5l-.268-.018-.028-.245A.993.993,0,0,0,61.462-400.954Zm-12.821,6.4a.727.727,0,0,1,.314.554c.037.374-.046.5-.674,1a3.608,3.608,0,0,0-1.237,1.491c-.189.392-.286.54-.4.609a.782.782,0,0,1-1.191-.471.665.665,0,0,1,.028-.448,4.947,4.947,0,0,1,.637-1.228,6.055,6.055,0,0,1,1.915-1.634A.839.839,0,0,1,48.641-394.553Z" transform="translate(-16.692 -73.08)"/>
    <path id="Path_23302" data-name="Path 23302" d="M26.157-101.843A.4.4,0,0,0,26-101.5a1.059,1.059,0,0,0,.028.258c.037.1,2.441,2.16,2.649,2.271.157.083.383.088,7.546.088s7.389,0,7.546-.088a33.268,33.268,0,0,0,2.621-2.266.5.5,0,0,0-.1-.6L46.131-102H26.314Z" transform="translate(0 -358.281)"/>
  </g>
</svg>
