<svg xmlns="http://www.w3.org/2000/svg" width="28.435" height="24" viewBox="0 0 28.435 24">
  <g id="scale" transform="translate(-32.07 445)">
    <path id="Path_23306" data-name="Path 23306" d="M32.212-444.835c-.159.159-.159.184-.121.641a3.721,3.721,0,0,0,2.5,3.206l.425.146h22.54l.425-.146a3.723,3.723,0,0,0,2.5-3.206c.038-.457.038-.483-.121-.641L60.2-445H32.377Z" transform="translate(0)"/>
    <path id="Path_23307" data-name="Path 23307" d="M185-361.883c0,.9.019,1.111.083,1.086a14.164,14.164,0,0,1,3.575-.737,13.573,13.573,0,0,1,5.276.737c.063.025.083-.184.083-1.086V-363H185Z" transform="translate(-143.22 -76.794)"/>
    <path id="Path_23308" data-name="Path 23308" d="M78.429-324.5a12.06,12.06,0,0,0-9.422,5.346,12.459,12.459,0,0,0-1.657,3.765,16.027,16.027,0,0,0-.349,4.5v2.413l.159.152.152.159H90.689l.152-.159.159-.152v-2.356a17.712,17.712,0,0,0-.267-4.19,12.522,12.522,0,0,0-1.74-4.127,12.017,12.017,0,0,0-6.914-4.959A13.069,13.069,0,0,0,78.429-324.5Zm.9,3.251.184.184v4.248l.368.14a2.5,2.5,0,0,1,.927,4.1,2.288,2.288,0,0,1-1.3.711,2.425,2.425,0,0,1-2.743-1.359,2.93,2.93,0,0,1-.152-1.86,2.434,2.434,0,0,1,1.5-1.587l.381-.14v-4.248l.184-.184a.612.612,0,0,1,.324-.184A.612.612,0,0,1,79.324-321.249Z" transform="translate(-32.712 -112.837)"/>
    <path id="Path_23309" data-name="Path 23309" d="M233.483-187.384a1.462,1.462,0,0,0-1.067,1.13,1.441,1.441,0,0,0,.717,1.575,1.177,1.177,0,0,0,.743.19,1.45,1.45,0,0,0,1.467-1.175A1.5,1.5,0,0,0,233.483-187.384Z" transform="translate(-187.589 -241.21)"/>
  </g>
</svg>
